<svg xmlns="http://www.w3.org/2000/svg" viewBox="0 0 64 64">
<path fill="#2c9b45" d="M33 31c2.1 0 3.8 1.7 3.8 3.8V56c0 1.7-1.3 3-3 3s-3-1.3-3-3V34.8c0-2.1 1.7-3.8 3.8-3.8Z"/>
<path fill="#259241" d="M33.5 42c4.6-.2 8.7 1.5 11.9 5.2-5.6 1.3-9.7.8-13-2.1Z"/>
<path fill="#30a74d" d="M31.9 46.4c-4.2-.6-7.6.5-10.9 3.8 4.8 1.3 8.3.7 11.2-1.5Z"/>
<path fill="#3bb454" d="M28.4 28.5c0-4.2 3.3-7.4 7.8-7.4 7.1 0 12.8 5.4 13.3 12.3.2 2.9-.8 5.6-2.9 7.3-1.9 1.6-4.5 2.1-7.2 1.5-3.1-.8-5.3-2.9-6.5-5.8-1.1 2.7-3 4.6-5.9 5.5-2.7.9-5.3.5-7.4-1.1-2.1-1.7-3.3-4.3-3.1-7.2.4-6.5 5.6-11.7 12-12 1.5-.1 2.9.2 4.2.8-2.7 1.3-5.2 3.6-6.1 6.1Z"/>
<path fill="#d3263a" d="M33 6c2.8 0 5.6.8 8 2.5 1.4 1 2.7 2.3 3.5 3.9.5 1 .7 2 .6 3.1 2.4 1 4.6 2.8 5.6 5.3 1.4 3.2.9 6.9-1.2 9.4-2.1 2.5-5.4 3.8-8.7 3.2-2.6-.4-5.1-1.8-7-3.9-1.8 2.1-4.2 3.4-6.8 3.8-3.3.5-6.7-.8-8.8-3.4-2-2.5-2.4-6.2-1-9.3 1.1-2.4 3.3-4.1 5.7-5.1-.1-1.2.1-2.2.6-3.2 1.7-3.3 5.5-5.9 9.5-6.2Z"/>
<path fill="#ef5263" d="M24.7 14.8c2.6 1.8 6 2.4 8.7 1 2.3-1.1 4-3.2 5.2-5.4 1.1 1.9 2.8 3.5 4.7 4.4-2.6 1.1-4.4 3.6-4.6 6.5-.2 3.4 1.8 6.5 4.7 8.1-3.7.9-7.5-.5-10.1-3.4-2.8 2.9-6.6 4.2-10.3 3.2 3-1.5 5.1-4.6 4.8-8.1-.2-2.8-1.9-5.3-4.4-6.3Z"/>
<path fill="#f16e7b" d="M29.2 11.9c1.5 0 2.8.7 3.5 1.8.6 1 .4 2.3-.4 3.1-.8.8-2.1 1.1-3.1.4-1.2-.7-1.9-2-1.9-3.4 0-1 .8-1.9 1.9-1.9Z"/>
</svg>
