<svg xmlns="http://www.w3.org/2000/svg" viewBox="0 0 64 64">
<path fill="#2c9b45" d="M38.6 31.2c2 0 3.6 1.6 3.6 3.6v7.7c0 3.4-1.5 6.6-4.1 8.7l-7.4 5.8c-1.3 1-3.2.8-4.2-.5s-.8-3.2.5-4.2l7.4-5.8c1.2-.9 1.8-2.3 1.8-4v-7.7c0-2 1.6-3.6 3.6-3.6Z"/>
<path fill="#30a74d" d="M31.8 46.2c-4.4-1.1-8.1-.4-11.6 2.4 4.6 1.9 8.4 1.7 11.9-.3Z"/>
<path fill="#3bb454" d="M42.1 38.6c4.5-.6 8.3.5 11.4 3.4-4.9 1.9-8.7 1.6-11.8-.1Z"/>
<path fill="#2b8e3d" d="M42.2 34.1c0 4.2-3.4 7.6-8.4 8.3-6.7 1-12.9-3.1-14.7-9.2-1.1-3.6-.4-7 2.2-9.5 2.2-2.1 5.4-3.1 8.6-2.5 2 .4 3.7 1.4 5.1 2.8 1.1-2.7 3.1-4.9 5.9-6 3.3-1.3 6.8-.9 9.4 1 2.7 1.9 4.2 5.1 4 8.5-.4 6.2-5.2 11.6-11.5 13.1-.2-2.2-.3-4.4-.6-6.5Z"/>
<path fill="#c82637" d="M23.9 9.7c2.3-.2 4.6.2 6.6 1.3 1.2.7 2.2 1.7 3 2.8.6.9 1 1.9 1.2 3 2.6-.2 5.3.4 7.4 2.1 2.8 2.1 4.1 5.7 3.3 9-1.1 4.3-4.8 7.3-9.4 7.6-3 .2-5.9-.8-8.1-2.6-1.3 2.2-3.3 4-5.8 4.9-4.1 1.6-8.9.4-11.6-3-2.2-2.8-2.7-6.6-1.2-9.8 1.4-3 4.5-5.2 7.9-5.7.7-4.9 4.3-8.9 8.7-9.6Z"/>
<path fill="#ec5566" d="M21.4 17c2.2 1.2 5 1.2 7.2-.2 2.1-1.4 3.4-3.6 4-6 1.7 2.1 4 3.5 6.7 3.8-2.2 1.7-3.3 4.5-2.8 7.3.6 3.6 3.5 6.4 7 7.3-3.3 2.1-7.7 2.2-11.1-.1-2.2 2.9-5.7 4.7-9.4 4.7 2.3-2.7 3.2-6.4 2-9.9-.9-2.6-3-5-5.6-6.9Z"/>
<path fill="#f16e7b" d="M24.8 14.1c1.4-.1 2.7.4 3.6 1.3.8.9.8 2.2.2 3.2-.7 1-2 1.5-3.1 1.1-1.2-.4-2.2-1.6-2.5-2.9-.3-1 .6-2.1 1.8-2.2Z"/>
</svg>
